<?xml version="1.0" encoding="UTF-8" standalone="no"?>
<svg
   viewBox="0 0 48 48"
   width="240px"
   height="240px"
   version="1.1"
   id="svg3"
   sodipodi:docname="xing.svg"
   inkscape:version="1.3.2 (091e20ef0f, 2023-11-25, custom)"
   xmlns:inkscape="http://www.inkscape.org/namespaces/inkscape"
   xmlns:sodipodi="http://sodipodi.sourceforge.net/DTD/sodipodi-0.dtd"
   xmlns="http://www.w3.org/2000/svg"
   xmlns:svg="http://www.w3.org/2000/svg">
  <defs
     id="defs3" />
  <sodipodi:namedview
     id="namedview3"
     pagecolor="#505050"
     bordercolor="#eeeeee"
     borderopacity="1"
     inkscape:showpageshadow="0"
     inkscape:pageopacity="0"
     inkscape:pagecheckerboard="0"
     inkscape:deskcolor="#505050"
     inkscape:zoom="1.6274728"
     inkscape:cx="88.173516"
     inkscape:cy="120.43212"
     inkscape:window-width="1536"
     inkscape:window-height="792"
     inkscape:window-x="0"
     inkscape:window-y="0"
     inkscape:window-maximized="1"
     inkscape:current-layer="svg3" />
  <path
     fill="#006064"
     d="m 47.469954,40.972222 c 0,3.605945 -2.921833,6.527778 -6.527778,6.527778 H 6.9977313 C 3.3930926,47.5 0.46995371,44.578167 0.46995371,40.972222 V 7.0277778 c 0,-3.6059444 2.92313889,-6.52777779 6.52777759,-6.52777779 H 40.942176 c 3.605945,0 6.527778,2.92183339 6.527778,6.52777779 z"
     id="path1"
     style="stroke-width:1.30556" />
  <path
     fill="#ffffff"
     d="M 14.370204,33.13889 H 9.0983704 c -0.3172496,0 -0.5548615,-0.143612 -0.6867224,-0.356417 -0.1396942,-0.225861 -0.1475273,-0.518306 0,-0.802917 l 5.602139,-9.823 c 0.0052,-0.01305 0.0052,-0.01698 0,-0.03003 l -3.564166,-6.130888 c -0.150139,-0.289834 -0.171029,-0.577055 -0.03133,-0.802916 0.131861,-0.218028 0.3995,-0.331612 0.71675,-0.331612 h 5.273139 c 0.808138,0 1.205028,0.519612 1.466138,0.985695 0,0 3.604639,6.244472 3.625528,6.279721 -0.212805,0.374696 -5.690916,9.999251 -5.690916,9.999251 -0.268945,0.484362 -0.650167,1.013112 -1.438723,1.013112 z"
     id="path2"
     style="stroke-width:1.30556" />
  <path
     fill="#cddc39"
     d="M 39.524343,6.8724206 27.852676,27.510643 c -0.0065,0.01436 -0.0065,0.02481 0,0.03394 l 7.431222,13.583 c 0.146223,0.292445 0.15275,0.587501 0.01174,0.813362 -0.135778,0.216722 -0.379918,0.336833 -0.699778,0.336833 h -5.265306 c -0.805527,0 -1.211555,-0.535278 -1.47136,-1.006583 0,0 -7.473001,-13.705723 -7.492585,-13.740973 C 20.740008,26.869611 32.095729,6.7275 32.095729,6.7275 c 0.282,-0.5065555 0.626667,-1.0052778 1.411306,-1.0052778 h 5.329278 c 0.315944,0 0.566611,0.1188055 0.699778,0.338139 0.138388,0.2245555 0.133167,0.5183055 -0.01174,0.8120554 z"
     id="path3"
     style="stroke-width:1.30556" />
</svg>
