<?xml version="1.0" encoding="UTF-8" standalone="no"?>
<svg
   viewBox="0 0 498 498"
   width="2490"
   height="2490"
   version="1.1"
   id="svg3"
   sodipodi:docname="xing.svg"
   inkscape:version="1.3.2 (091e20ef0f, 2023-11-25, custom)"
   xmlns:inkscape="http://www.inkscape.org/namespaces/inkscape"
   xmlns:sodipodi="http://sodipodi.sourceforge.net/DTD/sodipodi-0.dtd"
   xmlns="http://www.w3.org/2000/svg"
   xmlns:svg="http://www.w3.org/2000/svg">
  <defs
     id="defs3" />
  <sodipodi:namedview
     id="namedview3"
     pagecolor="#505050"
     bordercolor="#eeeeee"
     borderopacity="1"
     inkscape:showpageshadow="0"
     inkscape:pageopacity="0"
     inkscape:pagecheckerboard="0"
     inkscape:deskcolor="#505050"
     inkscape:zoom="0.16606554"
     inkscape:cx="1511.4515"
     inkscape:cy="909.27957"
     inkscape:window-width="1536"
     inkscape:window-height="792"
     inkscape:window-x="0"
     inkscape:window-y="0"
     inkscape:window-maximized="1"
     inkscape:current-layer="svg3" />
  <path
     fill="#006064"
     d="m 498,428.83332 c 0,38.20767 -30.959,69.16667 -69.16667,69.16667 H 69.16667 C 30.97282,497.99999 0,467.04099 0,428.83332 V 69.166669 C 0,30.958999 30.97282,0 69.16667,0 H 428.83333 C 467.041,0 498,30.958999 498,69.166669 Z"
     id="path1"
     style="stroke-width:13.8334" />
  <path
     fill="#ffffff"
     d="M 147.28349,345.83334 H 91.4245 c -3.3615,0 -5.87917,-1.52168 -7.27634,-3.77651 -1.48015,-2.39316 -1.56316,-5.49184 0,-8.5075 l 59.35883,-104.08199 c 0.0551,-0.13828 0.0551,-0.17992 0,-0.31819 L 105.742,164.18782 c -1.59083,-3.071 -1.81218,-6.11433 -0.33197,-8.5075 1.39717,-2.31017 4.233,-3.51367 7.5945,-3.51367 h 55.87285 c 8.56282,0 12.76816,5.50568 15.53482,10.44418 0,0 38.19383,66.16483 38.41517,66.53832 -2.25483,3.97018 -60.29951,105.9495 -60.29951,105.9495 -2.84967,5.13218 -6.88898,10.73468 -15.24433,10.73468 z"
     id="path2"
     style="stroke-width:13.8334" />
  <path
     fill="#cddc39"
     d="m 413.81033,67.520549 -123.67,218.677321 c -0.0689,0.15215 -0.0689,0.26288 0,0.35962 l 78.73933,143.922 c 1.54934,3.09867 1.6185,6.22501 0.12439,8.61817 -1.43867,2.29633 -4.02551,3.569 -7.41467,3.569 h -55.78983 c -8.53516,0 -12.83733,-5.67167 -15.59016,-10.6655 0,0 -79.18201,-145.22234 -79.38952,-145.59584 3.95644,-6.99966 124.27876,-220.420321 124.27876,-220.420321 2.988,-5.36734 6.64001,-10.65166 14.95384,-10.65166 h 56.46767 c 3.34767,0 6.00367,1.25883 7.41467,3.58283 1.46633,2.37933 1.41101,5.49184 -0.12439,8.60433 z"
     id="path3"
     style="stroke-width:13.8334" />
</svg>
